<svg width="32" height="32" viewBox="0 0 32 32" fill="none" xmlns="http://www.w3.org/2000/svg">
  <!-- Background matching the dark theme -->
  <rect width="32" height="32" rx="6" fill="#0a0a0a"/>
  
  <!-- Main large cyan circle (upper left portion) -->
  <circle cx="12" cy="10" r="8" fill="#29E7CD" opacity="0.9"/>
  
  <!-- Overlapping organic shapes extending right and bottom -->
  <ellipse cx="18" cy="12" rx="6" ry="8" fill="#3B82F6" opacity="0.8"/>
  <ellipse cx="16" cy="18" rx="7" ry="5" fill="#D925C7" opacity="0.8"/>
  
  <!-- Thin horizontal wavy lines within shapes (suggesting data streams) -->
  <path d="M8 8 Q10 6 12 8 Q14 10 16 8" stroke="#29E7CD" stroke-width="0.8" stroke-linecap="round" opacity="0.7"/>
  <path d="M14 10 Q16 8 18 10 Q20 12 22 10" stroke="#3B82F6" stroke-width="0.8" stroke-linecap="round" opacity="0.7"/>
  <path d="M12 16 Q14 14 16 16 Q18 18 20 16" stroke="#D925C7" stroke-width="0.8" stroke-linecap="round" opacity="0.7"/>
  
  <!-- Cluster of thin pink lines radiating from upper-right (fiber optics/neural pathways) -->
  <path d="M22 8 Q24 6 26 8" stroke="#D925C7" stroke-width="0.6" stroke-linecap="round"/>
  <path d="M24 6 Q26 4 28 6" stroke="#D925C7" stroke-width="0.6" stroke-linecap="round"/>
  <path d="M26 8 Q28 6 30 8" stroke="#D925C7" stroke-width="0.6" stroke-linecap="round"/>
  
  <!-- Small accent circles -->
  <circle cx="8" cy="8" r="2" fill="#29E7CD" opacity="0.8"/>
  <circle cx="24" cy="20" r="2" fill="#3B82F6" opacity="0.8"/>
  <circle cx="6" cy="22" r="1.5" fill="#D925C7" opacity="0.8"/>
  
  <!-- Small open circles at the end of neural pathways -->
  <circle cx="28" cy="6" r="0.8" fill="none" stroke="#D925C7" stroke-width="0.8"/>
  <circle cx="30" cy="8" r="0.8" fill="none" stroke="#D925C7" stroke-width="0.8"/>
</svg>
